# xmcd
#
# Track frame offsets:
#	150
#	14641
#	28962
#	42983
#	57884
#	68405
#	87547
#	108632
#	120372
#	134007
#	146464
#	160805
#	172420
#	186206
#	201814
#	215320
#	226560
#	245125
#	257992
#	272421
#	285776
#	301172
#	315398
#	329012
#	344845
# Disc length: 4813 seconds
# Revision: 1
# Processed by: cddbd v1.5PL3 Copyright (c) Steve Scherf et al.
#
# Submitted via: libkcddb 0.10
#
DISCID=7912cb19
DTITLE=Richard Clayderman - Richard Clayderman
DYEAR=1900
DGENRE=Unknown
TTITLE0=La Cumparsita
TTITLE1=Serenade
TTITLE2=Only You
TTITLE3=Les Mers Mories
TTITLE4=Yesterday
TTITLE5=The Phantom Of The Opera
TTITLE6=Tell Him
TTITLE7=Godfather
TTITLE8=Unchained Melody
TTITLE9=Rythm Of The Rain
TTITLE10=The Sound Of Silence
TTITLE11=La Vie En Rose
TTITLE12=Hello
TTITLE13=Besame Mucho
TTITLE14=Con Te Partira
TTITLE15=Tristesse
TTITLE16=Careless Whisper
TTITLE17=Without You
TTITLE18=Strangers In The Night
TTITLE19=Lucie
TTITLE20=Chiquitita
TTITLE21=Mano A Mano
TTITLE22=Poetic Sonatina
TTITLE23=Le Pas Des Hommes Libres
TTITLE24=Donna Donna
EXTD=
EXTT0=
EXTT1=
EXTT2=
EXTT3=
EXTT4=
EXTT5=
EXTT6=
EXTT7=
EXTT8=
EXTT9=
EXTT10=
EXTT11=
EXTT12=
EXTT13=
EXTT14=
EXTT15=
EXTT16=
EXTT17=
EXTT18=
EXTT19=
EXTT20=
EXTT21=
EXTT22=
EXTT23=
EXTT24=
PLAYORDER=
